<mxfile host="Electron" modified="2023-10-08T04:58:32.400Z" agent="Mozilla/5.0 (Windows NT 10.0; Win64; x64) AppleWebKit/537.36 (KHTML, like Gecko) draw.io/21.8.2 Chrome/114.0.5735.289 Electron/25.8.1 Safari/537.36" etag="U71HzZKUAHGSfB4fovtz" version="21.8.2" type="device">
  <diagram name="Page-1" id="2YBvvXClWsGukQMizWep">
    <mxGraphModel dx="1135" dy="518" grid="1" gridSize="10" guides="1" tooltips="1" connect="1" arrows="1" fold="1" page="1" pageScale="1" pageWidth="850" pageHeight="1100" math="0" shadow="0">
      <root>
        <mxCell id="0" />
        <mxCell id="1" parent="0" />
        <mxCell id="50RQP9Jf5Rg01EeJcxNJ-7" value="p.location:Location" style="shape=umlLifeline;perimeter=lifelinePerimeter;whiteSpace=wrap;html=1;container=0;dropTarget=0;collapsible=0;recursiveResize=0;outlineConnect=0;portConstraint=eastwest;newEdgeStyle={&quot;edgeStyle&quot;:&quot;elbowEdgeStyle&quot;,&quot;elbow&quot;:&quot;vertical&quot;,&quot;curved&quot;:0,&quot;rounded&quot;:0};" vertex="1" parent="1">
          <mxGeometry x="430" y="140" width="110" height="300" as="geometry" />
        </mxCell>
        <mxCell id="50RQP9Jf5Rg01EeJcxNJ-8" value="" style="html=1;points=[];perimeter=orthogonalPerimeter;outlineConnect=0;targetShapes=umlLifeline;portConstraint=eastwest;newEdgeStyle={&quot;edgeStyle&quot;:&quot;elbowEdgeStyle&quot;,&quot;elbow&quot;:&quot;vertical&quot;,&quot;curved&quot;:0,&quot;rounded&quot;:0};" vertex="1" parent="50RQP9Jf5Rg01EeJcxNJ-7">
          <mxGeometry x="50" y="200" width="10" height="80" as="geometry" />
        </mxCell>
        <mxCell id="50RQP9Jf5Rg01EeJcxNJ-9" value="location.Inventory:Inventory" style="shape=umlLifeline;perimeter=lifelinePerimeter;whiteSpace=wrap;html=1;container=0;dropTarget=0;collapsible=0;recursiveResize=0;outlineConnect=0;portConstraint=eastwest;newEdgeStyle={&quot;edgeStyle&quot;:&quot;elbowEdgeStyle&quot;,&quot;elbow&quot;:&quot;vertical&quot;,&quot;curved&quot;:0,&quot;rounded&quot;:0};" vertex="1" parent="1">
          <mxGeometry x="550" y="140" width="150" height="300" as="geometry" />
        </mxCell>
        <mxCell id="50RQP9Jf5Rg01EeJcxNJ-10" value="" style="html=1;points=[];perimeter=orthogonalPerimeter;outlineConnect=0;targetShapes=umlLifeline;portConstraint=eastwest;newEdgeStyle={&quot;edgeStyle&quot;:&quot;elbowEdgeStyle&quot;,&quot;elbow&quot;:&quot;vertical&quot;,&quot;curved&quot;:0,&quot;rounded&quot;:0};" vertex="1" parent="50RQP9Jf5Rg01EeJcxNJ-9">
          <mxGeometry x="70" y="220" width="10" height="60" as="geometry" />
        </mxCell>
        <mxCell id="50RQP9Jf5Rg01EeJcxNJ-32" value="" style="group" vertex="1" connectable="0" parent="1">
          <mxGeometry x="70" y="140" width="350" height="300" as="geometry" />
        </mxCell>
        <mxCell id="aM9ryv3xv72pqoxQDRHE-1" value="p : Player" style="shape=umlLifeline;perimeter=lifelinePerimeter;whiteSpace=wrap;html=1;container=0;dropTarget=0;collapsible=0;recursiveResize=0;outlineConnect=0;portConstraint=eastwest;newEdgeStyle={&quot;edgeStyle&quot;:&quot;elbowEdgeStyle&quot;,&quot;elbow&quot;:&quot;vertical&quot;,&quot;curved&quot;:0,&quot;rounded&quot;:0};" parent="50RQP9Jf5Rg01EeJcxNJ-32" vertex="1">
          <mxGeometry x="10" width="100" height="300" as="geometry" />
        </mxCell>
        <mxCell id="aM9ryv3xv72pqoxQDRHE-2" value="" style="html=1;points=[];perimeter=orthogonalPerimeter;outlineConnect=0;targetShapes=umlLifeline;portConstraint=eastwest;newEdgeStyle={&quot;edgeStyle&quot;:&quot;elbowEdgeStyle&quot;,&quot;elbow&quot;:&quot;vertical&quot;,&quot;curved&quot;:0,&quot;rounded&quot;:0};" parent="aM9ryv3xv72pqoxQDRHE-1" vertex="1">
          <mxGeometry x="45" y="70" width="10" height="210" as="geometry" />
        </mxCell>
        <mxCell id="aM9ryv3xv72pqoxQDRHE-3" value="locate &quot;sword&quot;" style="html=1;verticalAlign=bottom;startArrow=oval;endArrow=block;startSize=8;edgeStyle=elbowEdgeStyle;elbow=vertical;curved=0;rounded=0;" parent="aM9ryv3xv72pqoxQDRHE-1" target="aM9ryv3xv72pqoxQDRHE-2" edge="1">
          <mxGeometry relative="1" as="geometry">
            <mxPoint x="-50" y="70" as="sourcePoint" />
          </mxGeometry>
        </mxCell>
        <mxCell id="aM9ryv3xv72pqoxQDRHE-4" value="" style="html=1;points=[];perimeter=orthogonalPerimeter;outlineConnect=0;targetShapes=umlLifeline;portConstraint=eastwest;newEdgeStyle={&quot;edgeStyle&quot;:&quot;elbowEdgeStyle&quot;,&quot;elbow&quot;:&quot;vertical&quot;,&quot;curved&quot;:0,&quot;rounded&quot;:0};" parent="aM9ryv3xv72pqoxQDRHE-1" vertex="1">
          <mxGeometry x="50" y="100" width="10" height="30" as="geometry" />
        </mxCell>
        <mxCell id="50RQP9Jf5Rg01EeJcxNJ-61" value="" style="html=1;points=[];perimeter=orthogonalPerimeter;outlineConnect=0;targetShapes=umlLifeline;portConstraint=eastwest;newEdgeStyle={&quot;edgeStyle&quot;:&quot;elbowEdgeStyle&quot;,&quot;elbow&quot;:&quot;vertical&quot;,&quot;curved&quot;:0,&quot;rounded&quot;:0};" vertex="1" parent="aM9ryv3xv72pqoxQDRHE-1">
          <mxGeometry x="50" y="180" width="10" height="30" as="geometry" />
        </mxCell>
        <mxCell id="aM9ryv3xv72pqoxQDRHE-5" value="p.Inventory:Inventory" style="shape=umlLifeline;perimeter=lifelinePerimeter;whiteSpace=wrap;html=1;container=0;dropTarget=0;collapsible=0;recursiveResize=0;outlineConnect=0;portConstraint=eastwest;newEdgeStyle={&quot;edgeStyle&quot;:&quot;elbowEdgeStyle&quot;,&quot;elbow&quot;:&quot;vertical&quot;,&quot;curved&quot;:0,&quot;rounded&quot;:0};" parent="50RQP9Jf5Rg01EeJcxNJ-32" vertex="1">
          <mxGeometry x="120" width="120" height="300" as="geometry" />
        </mxCell>
        <mxCell id="aM9ryv3xv72pqoxQDRHE-6" value="" style="html=1;points=[];perimeter=orthogonalPerimeter;outlineConnect=0;targetShapes=umlLifeline;portConstraint=eastwest;newEdgeStyle={&quot;edgeStyle&quot;:&quot;elbowEdgeStyle&quot;,&quot;elbow&quot;:&quot;vertical&quot;,&quot;curved&quot;:0,&quot;rounded&quot;:0};" parent="aM9ryv3xv72pqoxQDRHE-5" vertex="1">
          <mxGeometry x="60" y="150" width="10" height="50" as="geometry" />
        </mxCell>
        <mxCell id="50RQP9Jf5Rg01EeJcxNJ-3" value=": Item" style="shape=umlLifeline;perimeter=lifelinePerimeter;whiteSpace=wrap;html=1;container=0;dropTarget=0;collapsible=0;recursiveResize=0;outlineConnect=0;portConstraint=eastwest;newEdgeStyle={&quot;edgeStyle&quot;:&quot;elbowEdgeStyle&quot;,&quot;elbow&quot;:&quot;vertical&quot;,&quot;curved&quot;:0,&quot;rounded&quot;:0};" vertex="1" parent="50RQP9Jf5Rg01EeJcxNJ-32">
          <mxGeometry x="250" width="100" height="300" as="geometry" />
        </mxCell>
        <mxCell id="50RQP9Jf5Rg01EeJcxNJ-4" value="" style="html=1;points=[];perimeter=orthogonalPerimeter;outlineConnect=0;targetShapes=umlLifeline;portConstraint=eastwest;newEdgeStyle={&quot;edgeStyle&quot;:&quot;elbowEdgeStyle&quot;,&quot;elbow&quot;:&quot;vertical&quot;,&quot;curved&quot;:0,&quot;rounded&quot;:0};" vertex="1" parent="50RQP9Jf5Rg01EeJcxNJ-3">
          <mxGeometry x="45" y="150" width="10" height="50" as="geometry" />
        </mxCell>
        <mxCell id="50RQP9Jf5Rg01EeJcxNJ-16" value="&lt;font style=&quot;font-size: 8px;&quot;&gt;AreYou&quot;sword&quot;&lt;/font&gt;" style="text;whiteSpace=wrap;html=1;" vertex="1" parent="50RQP9Jf5Rg01EeJcxNJ-32">
          <mxGeometry x="80" y="70" width="70" height="40" as="geometry" />
        </mxCell>
        <mxCell id="50RQP9Jf5Rg01EeJcxNJ-18" value="&lt;span style=&quot;color: rgb(0, 0, 0); font-family: Helvetica; font-style: normal; font-variant-ligatures: normal; font-variant-caps: normal; font-weight: 400; letter-spacing: normal; orphans: 2; text-align: left; text-indent: 0px; text-transform: none; widows: 2; word-spacing: 0px; -webkit-text-stroke-width: 0px; background-color: rgb(251, 251, 251); text-decoration-thickness: initial; text-decoration-style: initial; text-decoration-color: initial; float: none; display: inline !important;&quot;&gt;&lt;font style=&quot;font-size: 8px;&quot;&gt;Fetch &quot;sword&quot;&lt;/font&gt;&lt;/span&gt;" style="text;whiteSpace=wrap;html=1;" vertex="1" parent="50RQP9Jf5Rg01EeJcxNJ-32">
          <mxGeometry x="100" y="150" width="60" height="20" as="geometry" />
        </mxCell>
        <mxCell id="50RQP9Jf5Rg01EeJcxNJ-21" value="&lt;font style=&quot;font-size: 8px;&quot;&gt;False&lt;/font&gt;" style="text;html=1;align=center;verticalAlign=middle;resizable=0;points=[];autosize=1;strokeColor=none;fillColor=none;" vertex="1" parent="50RQP9Jf5Rg01EeJcxNJ-32">
          <mxGeometry x="70" y="100" width="40" height="30" as="geometry" />
        </mxCell>
        <mxCell id="50RQP9Jf5Rg01EeJcxNJ-22" value="" style="endArrow=classic;html=1;rounded=0;" edge="1" parent="50RQP9Jf5Rg01EeJcxNJ-32">
          <mxGeometry width="50" height="50" relative="1" as="geometry">
            <mxPoint x="65.25" y="160" as="sourcePoint" />
            <mxPoint x="184.75" y="160" as="targetPoint" />
            <Array as="points">
              <mxPoint x="100.25" y="160" />
            </Array>
          </mxGeometry>
        </mxCell>
        <mxCell id="50RQP9Jf5Rg01EeJcxNJ-23" value="" style="endArrow=classic;html=1;rounded=0;exitX=-0.012;exitY=0.926;exitDx=0;exitDy=0;exitPerimeter=0;" edge="1" parent="50RQP9Jf5Rg01EeJcxNJ-32" source="50RQP9Jf5Rg01EeJcxNJ-21">
          <mxGeometry width="50" height="50" relative="1" as="geometry">
            <mxPoint x="40" y="200" as="sourcePoint" />
            <mxPoint x="70" y="160" as="targetPoint" />
            <Array as="points">
              <mxPoint x="90" y="130" />
            </Array>
          </mxGeometry>
        </mxCell>
        <mxCell id="50RQP9Jf5Rg01EeJcxNJ-25" value="" style="endArrow=classic;html=1;rounded=0;entryX=0.012;entryY=0.243;entryDx=0;entryDy=0;entryPerimeter=0;" edge="1" parent="50RQP9Jf5Rg01EeJcxNJ-32" target="50RQP9Jf5Rg01EeJcxNJ-21">
          <mxGeometry width="50" height="50" relative="1" as="geometry">
            <mxPoint x="70" y="80" as="sourcePoint" />
            <mxPoint x="81" y="104" as="targetPoint" />
            <Array as="points">
              <mxPoint x="91" y="94" />
            </Array>
          </mxGeometry>
        </mxCell>
        <mxCell id="50RQP9Jf5Rg01EeJcxNJ-27" value="" style="endArrow=classic;html=1;rounded=0;" edge="1" parent="50RQP9Jf5Rg01EeJcxNJ-32">
          <mxGeometry width="50" height="50" relative="1" as="geometry">
            <mxPoint x="175.25" y="160" as="sourcePoint" />
            <mxPoint x="294.75" y="160" as="targetPoint" />
            <Array as="points">
              <mxPoint x="210.25" y="160" />
            </Array>
          </mxGeometry>
        </mxCell>
        <mxCell id="50RQP9Jf5Rg01EeJcxNJ-28" value="&lt;font style=&quot;font-size: 8px;&quot;&gt;AreYou&quot;sword&quot;&lt;/font&gt;" style="text;whiteSpace=wrap;html=1;" vertex="1" parent="50RQP9Jf5Rg01EeJcxNJ-32">
          <mxGeometry x="200" y="140" width="60" height="20" as="geometry" />
        </mxCell>
        <mxCell id="50RQP9Jf5Rg01EeJcxNJ-30" value="" style="endArrow=none;dashed=1;html=1;rounded=0;" edge="1" parent="50RQP9Jf5Rg01EeJcxNJ-32" target="50RQP9Jf5Rg01EeJcxNJ-4">
          <mxGeometry width="50" height="50" relative="1" as="geometry">
            <mxPoint x="200.0000000000001" y="185" as="sourcePoint" />
            <mxPoint x="300" y="190" as="targetPoint" />
          </mxGeometry>
        </mxCell>
        <mxCell id="50RQP9Jf5Rg01EeJcxNJ-60" value="&lt;font style=&quot;font-size: 8px;&quot;&gt;False&lt;/font&gt;" style="text;whiteSpace=wrap;html=1;" vertex="1" parent="50RQP9Jf5Rg01EeJcxNJ-32">
          <mxGeometry x="210" y="175" width="60" height="20" as="geometry" />
        </mxCell>
        <mxCell id="50RQP9Jf5Rg01EeJcxNJ-63" value="" style="endArrow=none;dashed=1;html=1;rounded=0;" edge="1" parent="50RQP9Jf5Rg01EeJcxNJ-32">
          <mxGeometry width="50" height="50" relative="1" as="geometry">
            <mxPoint x="85" y="184.82" as="sourcePoint" />
            <mxPoint x="180" y="184.82" as="targetPoint" />
          </mxGeometry>
        </mxCell>
        <mxCell id="50RQP9Jf5Rg01EeJcxNJ-65" value="&lt;font style=&quot;font-size: 14px;&quot;&gt;&amp;lt;&lt;/font&gt;" style="text;html=1;align=center;verticalAlign=middle;resizable=0;points=[];autosize=1;strokeColor=none;fillColor=none;" vertex="1" parent="50RQP9Jf5Rg01EeJcxNJ-32">
          <mxGeometry x="60" y="170" width="30" height="30" as="geometry" />
        </mxCell>
        <mxCell id="50RQP9Jf5Rg01EeJcxNJ-66" value="&lt;font style=&quot;font-size: 8px;&quot;&gt;null&lt;/font&gt;" style="text;html=1;align=center;verticalAlign=middle;resizable=0;points=[];autosize=1;strokeColor=none;fillColor=none;" vertex="1" parent="50RQP9Jf5Rg01EeJcxNJ-32">
          <mxGeometry x="110" y="180" width="40" height="30" as="geometry" />
        </mxCell>
        <mxCell id="50RQP9Jf5Rg01EeJcxNJ-69" value="" style="endArrow=classic;html=1;rounded=0;exitX=-0.012;exitY=0.926;exitDx=0;exitDy=0;exitPerimeter=0;" edge="1" parent="50RQP9Jf5Rg01EeJcxNJ-32">
          <mxGeometry width="50" height="50" relative="1" as="geometry">
            <mxPoint x="70" y="205" as="sourcePoint" />
            <mxPoint x="70" y="220" as="targetPoint" />
            <Array as="points">
              <mxPoint x="90" y="207" />
            </Array>
          </mxGeometry>
        </mxCell>
        <mxCell id="50RQP9Jf5Rg01EeJcxNJ-70" value="" style="endArrow=classic;html=1;rounded=0;" edge="1" parent="50RQP9Jf5Rg01EeJcxNJ-32" target="50RQP9Jf5Rg01EeJcxNJ-7">
          <mxGeometry width="50" height="50" relative="1" as="geometry">
            <mxPoint x="50" y="230" as="sourcePoint" />
            <mxPoint x="169.5" y="230" as="targetPoint" />
            <Array as="points">
              <mxPoint x="85" y="230" />
            </Array>
          </mxGeometry>
        </mxCell>
        <mxCell id="50RQP9Jf5Rg01EeJcxNJ-96" value="&lt;font style=&quot;font-size: 8px;&quot;&gt;locate &quot;sword&quot;&lt;/font&gt;" style="text;whiteSpace=wrap;html=1;" vertex="1" parent="50RQP9Jf5Rg01EeJcxNJ-32">
          <mxGeometry x="210" y="210" width="60" height="20" as="geometry" />
        </mxCell>
        <mxCell id="50RQP9Jf5Rg01EeJcxNJ-110" value="&lt;font style=&quot;font-size: 14px;&quot;&gt;&amp;lt;&lt;/font&gt;" style="text;html=1;align=center;verticalAlign=middle;resizable=0;points=[];autosize=1;strokeColor=none;fillColor=none;" vertex="1" parent="50RQP9Jf5Rg01EeJcxNJ-32">
          <mxGeometry x="60" y="260" width="30" height="30" as="geometry" />
        </mxCell>
        <mxCell id="50RQP9Jf5Rg01EeJcxNJ-109" value="" style="endArrow=none;dashed=1;html=1;rounded=0;" edge="1" parent="50RQP9Jf5Rg01EeJcxNJ-32" target="50RQP9Jf5Rg01EeJcxNJ-8">
          <mxGeometry width="50" height="50" relative="1" as="geometry">
            <mxPoint x="80" y="275.3" as="sourcePoint" />
            <mxPoint x="565" y="280" as="targetPoint" />
          </mxGeometry>
        </mxCell>
        <mxCell id="50RQP9Jf5Rg01EeJcxNJ-115" value="&lt;span style=&quot;font-size: 8px;&quot;&gt;sword&lt;/span&gt;" style="text;whiteSpace=wrap;html=1;" vertex="1" parent="50RQP9Jf5Rg01EeJcxNJ-32">
          <mxGeometry x="230" y="250" width="60" height="20" as="geometry" />
        </mxCell>
        <mxCell id="50RQP9Jf5Rg01EeJcxNJ-117" value="&lt;font style=&quot;font-size: 14px;&quot;&gt;&amp;lt;&lt;/font&gt;" style="text;html=1;align=center;verticalAlign=middle;resizable=0;points=[];autosize=1;strokeColor=none;fillColor=none;" vertex="1" parent="50RQP9Jf5Rg01EeJcxNJ-32">
          <mxGeometry x="-10" y="260" width="30" height="30" as="geometry" />
        </mxCell>
        <mxCell id="50RQP9Jf5Rg01EeJcxNJ-118" value="&lt;span style=&quot;font-size: 8px;&quot;&gt;sword&lt;/span&gt;" style="text;whiteSpace=wrap;html=1;" vertex="1" parent="50RQP9Jf5Rg01EeJcxNJ-32">
          <mxGeometry x="20" y="250" width="60" height="20" as="geometry" />
        </mxCell>
        <mxCell id="50RQP9Jf5Rg01EeJcxNJ-64" value="&lt;font style=&quot;font-size: 14px;&quot;&gt;&amp;lt;&lt;/font&gt;" style="text;html=1;align=center;verticalAlign=middle;resizable=0;points=[];autosize=1;strokeColor=none;fillColor=none;" vertex="1" parent="1">
          <mxGeometry x="250" y="310" width="30" height="30" as="geometry" />
        </mxCell>
        <mxCell id="50RQP9Jf5Rg01EeJcxNJ-97" value="" style="endArrow=classic;html=1;rounded=0;" edge="1" parent="1" target="50RQP9Jf5Rg01EeJcxNJ-10">
          <mxGeometry width="50" height="50" relative="1" as="geometry">
            <mxPoint x="490" y="380" as="sourcePoint" />
            <mxPoint x="609.5" y="380" as="targetPoint" />
            <Array as="points">
              <mxPoint x="525" y="380" />
            </Array>
          </mxGeometry>
        </mxCell>
        <mxCell id="50RQP9Jf5Rg01EeJcxNJ-98" value="&lt;span style=&quot;color: rgb(0, 0, 0); font-family: Helvetica; font-style: normal; font-variant-ligatures: normal; font-variant-caps: normal; font-weight: 400; letter-spacing: normal; orphans: 2; text-align: left; text-indent: 0px; text-transform: none; widows: 2; word-spacing: 0px; -webkit-text-stroke-width: 0px; background-color: rgb(251, 251, 251); text-decoration-thickness: initial; text-decoration-style: initial; text-decoration-color: initial; float: none; display: inline !important;&quot;&gt;&lt;font style=&quot;font-size: 8px;&quot;&gt;Fetch &quot;sword&quot;&lt;/font&gt;&lt;/span&gt;" style="text;whiteSpace=wrap;html=1;" vertex="1" parent="1">
          <mxGeometry x="520" y="360" width="60" height="20" as="geometry" />
        </mxCell>
        <mxCell id="50RQP9Jf5Rg01EeJcxNJ-100" value="sword:Item" style="shape=umlLifeline;perimeter=lifelinePerimeter;whiteSpace=wrap;html=1;container=0;dropTarget=0;collapsible=0;recursiveResize=0;outlineConnect=0;portConstraint=eastwest;newEdgeStyle={&quot;edgeStyle&quot;:&quot;elbowEdgeStyle&quot;,&quot;elbow&quot;:&quot;vertical&quot;,&quot;curved&quot;:0,&quot;rounded&quot;:0};" vertex="1" parent="1">
          <mxGeometry x="710" y="140" width="80" height="300" as="geometry" />
        </mxCell>
        <mxCell id="50RQP9Jf5Rg01EeJcxNJ-101" value="" style="html=1;points=[];perimeter=orthogonalPerimeter;outlineConnect=0;targetShapes=umlLifeline;portConstraint=eastwest;newEdgeStyle={&quot;edgeStyle&quot;:&quot;elbowEdgeStyle&quot;,&quot;elbow&quot;:&quot;vertical&quot;,&quot;curved&quot;:0,&quot;rounded&quot;:0};" vertex="1" parent="50RQP9Jf5Rg01EeJcxNJ-100">
          <mxGeometry x="35" y="220" width="10" height="60" as="geometry" />
        </mxCell>
        <mxCell id="50RQP9Jf5Rg01EeJcxNJ-102" value="" style="endArrow=classic;html=1;rounded=0;" edge="1" parent="1">
          <mxGeometry width="50" height="50" relative="1" as="geometry">
            <mxPoint x="630" y="380" as="sourcePoint" />
            <mxPoint x="749.5" y="380" as="targetPoint" />
            <Array as="points">
              <mxPoint x="665" y="380" />
            </Array>
          </mxGeometry>
        </mxCell>
        <mxCell id="50RQP9Jf5Rg01EeJcxNJ-103" value="&lt;font style=&quot;font-size: 8px;&quot;&gt;AreYou&quot;sword&quot;&lt;/font&gt;" style="text;whiteSpace=wrap;html=1;" vertex="1" parent="1">
          <mxGeometry x="660" y="360" width="60" height="20" as="geometry" />
        </mxCell>
        <mxCell id="50RQP9Jf5Rg01EeJcxNJ-107" value="" style="endArrow=none;dashed=1;html=1;rounded=0;" edge="1" parent="1">
          <mxGeometry width="50" height="50" relative="1" as="geometry">
            <mxPoint x="650" y="404.7" as="sourcePoint" />
            <mxPoint x="745" y="404.7" as="targetPoint" />
          </mxGeometry>
        </mxCell>
        <mxCell id="50RQP9Jf5Rg01EeJcxNJ-108" value="&lt;font style=&quot;font-size: 14px;&quot;&gt;&amp;lt;&lt;/font&gt;" style="text;html=1;align=center;verticalAlign=middle;resizable=0;points=[];autosize=1;strokeColor=none;fillColor=none;" vertex="1" parent="1">
          <mxGeometry x="620" y="390" width="30" height="30" as="geometry" />
        </mxCell>
        <mxCell id="50RQP9Jf5Rg01EeJcxNJ-111" value="" style="endArrow=none;dashed=1;html=1;rounded=0;" edge="1" parent="1" target="50RQP9Jf5Rg01EeJcxNJ-9">
          <mxGeometry width="50" height="50" relative="1" as="geometry">
            <mxPoint x="510" y="414.7" as="sourcePoint" />
            <mxPoint x="605" y="414.7" as="targetPoint" />
          </mxGeometry>
        </mxCell>
        <mxCell id="50RQP9Jf5Rg01EeJcxNJ-112" value="&lt;font style=&quot;font-size: 14px;&quot;&gt;&amp;lt;&lt;/font&gt;" style="text;html=1;align=center;verticalAlign=middle;resizable=0;points=[];autosize=1;strokeColor=none;fillColor=none;" vertex="1" parent="1">
          <mxGeometry x="480" y="400" width="30" height="30" as="geometry" />
        </mxCell>
        <mxCell id="50RQP9Jf5Rg01EeJcxNJ-113" value="&lt;span style=&quot;font-size: 8px;&quot;&gt;sword&lt;/span&gt;" style="text;whiteSpace=wrap;html=1;" vertex="1" parent="1">
          <mxGeometry x="670" y="380" width="60" height="20" as="geometry" />
        </mxCell>
        <mxCell id="50RQP9Jf5Rg01EeJcxNJ-114" value="&lt;span style=&quot;font-size: 8px;&quot;&gt;sword&lt;/span&gt;" style="text;whiteSpace=wrap;html=1;" vertex="1" parent="1">
          <mxGeometry x="550" y="390" width="60" height="20" as="geometry" />
        </mxCell>
        <mxCell id="50RQP9Jf5Rg01EeJcxNJ-116" value="" style="endArrow=none;dashed=1;html=1;rounded=0;" edge="1" parent="1">
          <mxGeometry width="50" height="50" relative="1" as="geometry">
            <mxPoint x="80" y="415" as="sourcePoint" />
            <mxPoint x="125" y="414.87" as="targetPoint" />
          </mxGeometry>
        </mxCell>
      </root>
    </mxGraphModel>
  </diagram>
</mxfile>
